<svg width="104.401" height="77.001" viewBox="0 0 104.401 77.001" xmlns="http://www.w3.org/2000/svg"><g id="svgGroup" stroke-linecap="round" fill-rule="evenodd" font-size="9pt" stroke="#000" stroke-width="0.3mm" fill="#ffffff" style="stroke:#000;stroke-width:0.3mm;fill:#ffffff"><path d="M 35.701 30.2 L 36.301 30.2 Q 36.001 27.7 35.851 24.65 Q 35.711 21.803 35.701 19.522 A 78.874 78.874 0 0 1 35.701 19.2 L 35.701 11 A 12.185 12.185 0 0 0 35.566 9.113 Q 35.16 6.534 33.531 5.552 A 3.683 3.683 0 0 0 33.251 5.4 Q 30.801 4.2 27.501 4.2 L 26.701 4.2 L 26.701 0 L 45.101 0 L 45.101 65 A 12.185 12.185 0 0 0 45.235 66.887 Q 45.641 69.466 47.271 70.448 A 3.683 3.683 0 0 0 47.551 70.6 Q 50.001 71.8 53.301 71.8 L 54.101 71.8 L 54.101 76 L 37.201 76 L 36.101 67 L 35.701 67 A 21.364 21.364 0 0 1 32.968 71.351 A 17.669 17.669 0 0 1 29.901 74.3 A 12.771 12.771 0 0 1 25.427 76.407 Q 23.166 77 20.401 77 A 23.519 23.519 0 0 1 14.144 76.214 A 16.679 16.679 0 0 1 5.251 70.35 A 20.185 20.185 0 0 1 2.155 64.569 Q 0.215 59.127 0.022 51.106 A 75.007 75.007 0 0 1 0.001 49.3 A 63.518 63.518 0 0 1 0.415 41.767 Q 1.355 33.923 4.428 29.247 A 16.941 16.941 0 0 1 5.251 28.1 A 17.048 17.048 0 0 1 16.501 21.687 A 25.423 25.423 0 0 1 20.401 21.4 A 22.479 22.479 0 0 1 24.37 21.73 Q 26.624 22.135 28.443 23.036 A 12.368 12.368 0 0 1 29.851 23.85 Q 33.501 26.3 35.701 30.2 Z M 104.401 45.3 L 104.401 49.9 L 71.101 49.9 A 51.602 51.602 0 0 0 71.485 55.488 Q 72.341 62.173 75.051 65.75 A 12.158 12.158 0 0 0 83.218 70.496 A 18.197 18.197 0 0 0 86.001 70.7 A 21.004 21.004 0 0 0 90.112 70.317 A 15.067 15.067 0 0 0 94.851 68.55 A 21.107 21.107 0 0 0 97.488 66.731 Q 98.831 65.635 99.779 64.421 A 11.859 11.859 0 0 0 100.301 63.7 Q 101.001 64 101.601 64.9 A 3.504 3.504 0 0 1 102.123 66.216 A 4.811 4.811 0 0 1 102.201 67.1 A 4.96 4.96 0 0 1 101.837 68.906 Q 101.561 69.616 101.073 70.359 A 11.822 11.822 0 0 1 100.301 71.4 Q 98.813 73.201 96.098 74.604 A 23.026 23.026 0 0 1 94.501 75.35 A 18.703 18.703 0 0 1 90.985 76.418 Q 89.221 76.782 87.168 76.918 A 38.786 38.786 0 0 1 84.601 77 A 26.471 26.471 0 0 1 77.236 76.029 A 19.63 19.63 0 0 1 67.551 69.8 Q 62.362 63.725 61.551 53.521 A 49.524 49.524 0 0 1 61.401 49.6 A 54.162 54.162 0 0 1 61.912 41.896 Q 62.479 37.957 63.677 34.767 A 22.081 22.081 0 0 1 67.201 28.5 A 18.882 18.882 0 0 1 79.492 21.693 A 27.717 27.717 0 0 1 83.601 21.4 A 25.286 25.286 0 0 1 90.037 22.175 A 17.948 17.948 0 0 1 98.851 27.4 Q 104.401 33.4 104.401 45.3 Z M 22.101 70.6 A 17.933 17.933 0 0 0 26.05 70.196 Q 30.705 69.144 32.801 65.35 A 18.528 18.528 0 0 0 34.388 61.321 Q 35.701 56.567 35.701 49.3 A 60.284 60.284 0 0 0 35.445 43.552 Q 34.884 37.709 33.089 33.929 A 16.888 16.888 0 0 0 32.801 33.35 A 9.802 9.802 0 0 0 26.049 28.239 Q 24.237 27.803 22.035 27.8 A 22.439 22.439 0 0 0 22.001 27.8 Q 15.643 27.8 12.765 32.95 A 12.892 12.892 0 0 0 12.551 33.35 A 21.24 21.24 0 0 0 10.928 37.751 Q 9.701 42.509 9.701 49.4 A 63.46 63.46 0 0 0 9.926 54.943 Q 10.417 60.519 11.975 64.109 A 15.785 15.785 0 0 0 12.551 65.3 A 9.468 9.468 0 0 0 19.308 70.337 A 14.1 14.1 0 0 0 22.101 70.6 Z M 71.301 44.5 L 94.301 44.5 A 42.58 42.58 0 0 0 94.014 39.399 Q 93.707 36.854 93.067 34.734 A 18.978 18.978 0 0 0 91.851 31.65 Q 89.401 26.8 83.401 26.8 A 10.578 10.578 0 0 0 79.266 27.58 Q 76.884 28.58 75.193 30.864 A 12.676 12.676 0 0 0 74.851 31.35 Q 71.801 35.9 71.301 44.5 Z" vector-effect="non-scaling-stroke"/></g></svg>